<?xml version="1.0" encoding="utf-8"?>
<!-- Generator: Adobe Illustrator 19.1.1, SVG Export Plug-In . SVG Version: 6.00 Build 0)  -->
<svg version="1.1" id="Layer_1" xmlns="http://www.w3.org/2000/svg" xmlns:xlink="http://www.w3.org/1999/xlink" x="0px" y="0px"
	 viewBox="3164 -2791 100 100" style="enable-background:new 3164 -2791 100 100;" xml:space="preserve">
<style type="text/css">
	.st0{fill:#FFFFFF;enable-background:new    ;}
</style>
<path class="st0" d="M3191-2709.3l2.2,5.5c-3.1-1.8-6-3.9-8.6-6.4c-8.1-7.7-13.1-18.6-13.1-30.7c0-4.2,0.6-8.2,1.7-12l0,0l0.1,0.3
	L3191-2709.3z M3194.9-2755.6l-1.8-0.1c-4-0.1-3.5,4.1-3.5,4.1l14.1,35.5l9.5-22.7l-5.3-13.5c-2.1-3.6-7.3-3.5-7.3-3.5v-1.9h29.7
	l0,2.1l-3.1,0.2c-3.9,0-3.1,3.7-3.1,3.7l12.9,34.5l3.7-9.5c6.6-14.9,2.5-25.9,2.5-25.9c-6.6-13.5,1.7-15.5,1.7-15.5
	c0.5-0.1,1-0.1,1.5-0.1c-7.8-9.2-19.4-15-32.4-15c-17.5,0-32.6,10.6-39.1,25.8l19.9-0.2L3194.9-2755.6z M3254.6-2753.5L3236-2705
	l-0.3,0.8c1-0.6,1.9-1.2,2.8-1.8c10.9-7.7,18.1-20.4,18.1-34.8l0,0C3256.6-2745.3,3255.9-2749.5,3254.6-2753.5z M3215.1-2734.4
	l-11.5,26.9l-3,7l0,0c4.2,1.4,8.8,2.2,13.5,2.2c4.9,0,9.6-0.8,14-2.4l-1.4-3.5L3215.1-2734.4z M3264-2741c0,10.3-3.2,20-8.6,28
	c-9,13.3-24.2,22-41.4,22c-16.7,0-31.4-8.2-40.5-20.7c-6-8.2-9.5-18.3-9.5-29.3c0-27.6,22.4-50,50-50
	C3241.6-2791,3264-2768.6,3264-2741z M3261.8-2741c0-26.4-21.4-47.8-47.8-47.8c-26.4,0-47.8,21.4-47.8,47.8
	c0,11.2,3.9,21.5,10.4,29.7c8.8,11,22.3,18.1,37.4,18.1c15.2,0,28.8-7.1,37.5-18.2C3258-2719.6,3261.8-2729.8,3261.8-2741z"/>
</svg>
