<?xml version="1.0" encoding="utf-8"?>
<!-- Generator: Adobe Illustrator 19.1.1, SVG Export Plug-In . SVG Version: 6.00 Build 0)  -->
<svg version="1.1" id="Layer_1" xmlns="http://www.w3.org/2000/svg" xmlns:xlink="http://www.w3.org/1999/xlink" x="0px" y="0px"
	 viewBox="0 0 100 100" enable-background="new 0 0 100 100" xml:space="preserve">
<path id="Logo" fill="#FFFFFF" d="M100,60.94568C100,82.50981,82.53553,100,61.00311,100
	c-0.53913,0-1.06192-0.01636-1.58471-0.03271l8.67505-15.00327c10.35778-3.05955,17.90556-12.64725,17.90556-24.00196
	c0-13.82527-11.19098-25.03273-24.99591-25.03273h-1.60104l7.80918-13.53075C85.78662,25.37633,99.98365,41.50853,100,60.94568z
	 M57.99705,85.81481c-12.39994-1.48887-22.00621-12.04188-22.00621-24.85276V35.92933h13.80493l8.02156-13.89071
	c-0.26139,0.01636-0.53912,0.04909-0.80053,0.06545H35.99084V0L21.98986,7.88612v14.21794H8.00523L0,36.22383h21.94085
	l0.04901,26.4398h0.03267c0.75151,17.21204,12.61232,31.52814,28.57375,35.94568L57.99705,85.81481z"/>
<g>
</g>
<g>
</g>
<g>
</g>
<g>
</g>
<g>
</g>
<g>
</g>
</svg>
