<?xml version="1.0" encoding="utf-8"?>
<!-- Generator: Adobe Illustrator 19.1.1, SVG Export Plug-In . SVG Version: 6.00 Build 0)  -->
<svg version="1.1" id="Layer_1" xmlns="http://www.w3.org/2000/svg" xmlns:xlink="http://www.w3.org/1999/xlink" x="0px" y="0px"
	 viewBox="45 -45 100 100" style="enable-background:new 45 -45 100 100;" xml:space="preserve">
<style type="text/css">
	.st0{display:none;fill:#FFFFFF;}
	.st1{fill:#FFFFFF;}
</style>
<path class="st0" d="M50.95-45l6.89999,77.40002L58.95,45l36,10L131.05,45l1.10001-12.59998L139.05-44.99997H50.95V-45z
	 M122.74998-26.39999l-1,10.89999l0,0H79.54997l1,11.29999h40.20001l-3.10001,34l-22.60001,6.29999l0,0h-0.10001l-22.60001-6.29999
	l-1.5-17.29999h11.10001l0.79999,8.79999l12.29999,3.29999l0,0l0,0l12.29999-3.29999L108.64992,7H70.34993l-3-33.39999H122.74998z"
	/>
<path class="st1" d="M74.9997,22.32057l-9.99966,17.32057l-9.99966-17.32057L45,5l20.00004-34.64114h20.00079L65.00027,5.00043
	L74.9997,22.32057z M135.00034-12.32057l-9.99965-17.32057H104.9999L65.00004,39.64114h20.00079l29.9998-51.96154l9.99982,17.31998
	L104.9999,39.64114h20.00079L145,5L135.00034-12.32057z"/>
</svg>
